<?xml version="1.0" encoding="UTF-8"?>
<svg width="133px" height="26px" viewBox="0 0 133 26" version="1.1" xmlns="http://www.w3.org/2000/svg" xmlns:xlink="http://www.w3.org/1999/xlink">
    <title>icon/MF/logo</title>
    <g id="icon/MF/logo" stroke="none" stroke-width="1" fill="none" fill-rule="evenodd">
        <g id="Combined-Shape-2备份" transform="translate(1.000000, 0.000000)" fill="#FFFFFF">
            <path d="M65.6347903,15.1910112 L65.6347903,16.8884004 L58.8979547,16.8884004 C57.9944345,16.8884004 57.8656977,17.6382268 57.8656977,18.4086129 L57.8656977,18.4086129 L57.8656977,22.7594198 C57.8656977,23.5310153 57.9944345,24.2808417 58.8979547,24.2808417 L58.8979547,24.2808417 L62.3850703,24.2808417 L62.3850703,21.2392074 L60.2331568,21.2392074 L60.2331568,19.5188396 L65.6347903,19.5188396 L65.6347903,26 L58.5111536,26 C54.5988521,26 54.5988521,23.5739489 54.5988521,22.5393095 L54.598898,18.5577966 C54.6008729,17.4860944 54.687768,15.1910112 58.5111536,15.1910112 L58.5111536,15.1910112 L65.6347903,15.1910112 Z M97.5809272,15.1910112 L97.5809272,16.8884004 L90.8437311,16.8884004 C89.9407531,16.8884004 89.8114188,17.6382268 89.8114188,18.4086129 L89.8114188,18.4086129 L89.8114188,22.7594198 C89.8114188,23.5310153 89.9407531,24.2808417 90.8437311,24.2808417 L90.8437311,24.2808417 L94.3310332,24.2808417 L94.3310332,21.2392074 L92.1795952,21.2392074 L92.1795952,19.5188396 L97.5809272,19.5188396 L97.5809272,26 L90.4574998,26 C86.544989,26 86.544989,23.5739489 86.544989,22.5393095 L86.544989,22.5393095 L86.544989,18.6305373 C86.544989,17.5940838 86.544989,15.1910112 90.4574998,15.1910112 L90.4574998,15.1910112 L97.5809272,15.1910112 Z M49.9778892,15.1910112 L54.0180132,26 L50.0654848,26 L47.0038097,17.9701197 L44.0279425,26 L41.5299779,26 L45.5695061,15.1910112 L49.9778892,15.1910112 Z M71.1527594,15.1910112 L71.1527594,26 L67.9581457,26 L67.9581457,15.1910112 L71.1527594,15.1910112 Z M24.3952318,15.1910112 L24.3952318,26 L21.2006181,26 L21.2006181,15.1910112 L24.3952318,15.1910112 Z M30.3820919,15.1910112 L33.3012834,22.0728148 L36.4784168,15.1910112 L40.3683002,15.1910112 L40.3683002,26 L37.1692269,26 L37.1692269,18.8095411 L33.862826,26 L31.6374095,26 L28.6108905,18.7871485 L28.6108905,26 L26.4281678,26 L26.4281678,15.1910112 L30.3820919,15.1910112 Z M77.7443689,15.1910112 L81.9957645,22.2059602 L81.9957645,15.1910112 L84.512053,15.1910112 L84.512053,26 L80.6208852,26 L76.2592399,18.7877537 L76.2592399,26 L73.7665342,26 L73.7665342,15.1910112 L77.7443689,15.1910112 Z M119.943223,0 L119.943223,23.6629213 C117.296752,23.4299961 114.959803,22.4214539 113.298065,20.9272506 C111.654253,19.4516573 110.649801,17.5096133 110.649801,15.3748656 L110.649801,15.3748656 L110.649801,0 L119.943223,0 Z M131.56,10.2247191 L131.56,15.3833864 C131.56,17.5159393 130.552215,19.4553871 128.906704,20.9294634 C127.22287,22.4227302 124.900114,23.4296359 122.266578,23.6629213 L122.266578,23.6629213 L122.266578,10.2247191 L131.56,10.2247191 Z M87.1258278,9.05617978 L86.5555655,10.8089888 L84.8024724,10.8089888 L85.3501329,9.05617978 L87.1258278,9.05617978 Z M92.4017929,9.05617978 L92.9342163,10.8089888 L91.2076432,10.8089888 L90.6108609,9.05617978 L92.4017929,9.05617978 Z M97.5809272,7.59550562 L97.5809272,9.38298007 L93.8054746,10.8089888 L93.8054746,9.06414275 L97.5809272,7.59550562 Z M92.9342163,6.13483146 L92.9342163,8.62253754 L89.7303465,8.62253754 L89.7303465,10.8089888 L87.9822892,10.8089888 L87.9822892,8.62253754 L84.8024724,8.62253754 L84.8024724,6.13483146 L92.9342163,6.13483146 Z M41.5299779,0 L41.5299779,1.65633221 L37.9355893,1.65633221 L37.9355893,10.5168539 L34.6244494,10.5168539 L34.6244494,1.65633221 L31.0748786,1.65633221 L31.0748786,0 L41.5299779,0 Z M61.9899413,0 C65.9038482,0 65.9252097,2.34389764 65.9252097,3.35474776 L65.9251312,7.2330887 C65.9222281,8.27884999 65.8148958,10.5168539 61.9899413,10.5168539 L61.9899413,10.5168539 L54.5988521,10.5168539 L54.5988521,0 Z M52.2880806,0 L52.2880806,1.65642515 L46.5203563,1.65642515 L46.5203563,4.40985576 L51.9246671,4.40985576 L51.9246671,6.08634449 L46.5203563,6.08634449 L46.5203563,8.8397751 L52.5659161,8.8397751 L52.5659161,10.5168539 L43.2724945,10.5168539 L43.2724945,0 L52.2880806,0 Z M77.9136758,0 L78.3271948,1.46219851 L80.3720822,1.46219851 L80.7658814,0 L82.5950457,0 L82.1803316,1.46219851 L82.7026085,1.46219851 L82.7026085,2.38743147 L80.155164,2.38743147 L80.155164,5.18319278 L82.7695364,5.18319278 L82.7695364,6.12966833 L80.7001486,6.12966833 L82.7026085,10.5168539 L80.8734442,10.5168539 L79.2390879,7.14046173 L77.6298297,10.5168539 L75.7994702,10.5168539 L77.8461503,6.12966833 L75.8646054,6.12966833 L75.8646054,5.18319278 L78.4580628,5.18319278 L78.4580628,2.38743147 L75.9303382,2.38743147 L75.9303382,1.46219851 L76.6061908,1.46219851 L76.2141844,0 L77.9136758,0 Z M75.7994702,0 L75.7994702,0.924642883 L75.4320757,0.924642883 L75.4320757,10.5168539 L73.7924296,10.5168539 L73.7924296,9.63469624 L70.0331543,10.107934 L70.0331543,9.14021587 L70.4218814,9.09714061 L70.4218814,0.924642883 L69.9910817,0.924642883 L69.9910817,0 L75.7994702,0 Z M17.3573931,0 L21.5901546,6.81769233 L21.5901546,0 L24.1048124,0 L24.1048124,10.5168539 L20.2157895,10.5168539 L15.8739514,3.50620805 L15.8739514,10.5168539 L13.3592936,10.5168539 L13.3592936,0 L17.3573931,0 Z M29.6227815,0 L29.6227815,10.5168539 L26.4281678,10.5168539 L26.4281678,0 L29.6227815,0 Z M3.27005205,0 L3.27005205,7.37749455 C3.27005205,8.12987861 3.42155337,8.8397751 4.30917288,8.8397751 L4.30917288,8.8397751 L6.99401395,8.8397751 C7.90480424,8.8397751 8.05689969,8.12987861 8.05689969,7.37749455 L8.05689969,7.37749455 L8.05689969,0 L11.3263576,0 L11.3263113,7.2330887 C11.3243215,8.27884999 11.2367666,10.5168539 7.38435264,10.5168539 L7.38435264,10.5168539 L3.94200497,10.5168539 C0.179182044,10.5168539 0.00814463837,8.38173281 0.000370210835,7.30794006 L0,0 L3.27005205,0 Z M73.7924296,6.62473877 L72.0633052,6.62473877 L72.0633052,8.88235439 L73.7924296,8.66697809 L73.7924296,6.62473877 Z M61.6012801,1.65642515 L57.8600456,1.65642515 L57.8600456,8.8397751 L61.6012801,8.8397751 C62.4877836,8.8397751 62.6390944,8.12987861 62.6390944,7.37749455 L62.6390944,7.37749455 L62.6390944,3.13935938 C62.6390944,2.38697532 62.4877836,1.65642515 61.6012801,1.65642515 L61.6012801,1.65642515 Z M131.56,0 L131.56,7.88764045 L122.266578,7.88764045 L122.266578,0 L131.56,0 Z M90.9829105,6.927979 L86.775426,6.927979 L86.775426,7.78584926 L90.9829105,7.78584926 L90.9829105,6.927979 Z M97.5809272,3.79775281 L97.5809272,5.59281571 L93.8054746,7.01123596 L93.8054746,5.23792445 L97.5809272,3.79775281 Z M73.7924296,3.82897745 L72.0633052,3.82897745 L72.0633052,5.807489 L73.7924296,5.807489 L73.7924296,3.82897745 Z M93.0934438,0 L93.0922402,3.64950968 L89.8906747,3.64950968 L89.8906747,4.37917605 L93.2246358,4.37917605 L93.2246358,5.25842697 L84.8024724,5.25842697 L84.8024724,4.37917605 L88.1346281,4.37917605 L88.1346281,3.64950968 L84.9541255,3.64950968 L84.9541255,0 L93.0934438,0 Z M97.5809272,0 L97.5809272,1.77489569 L93.8054746,3.21348315 L93.8054746,1.43800761 L97.5809272,0 Z M73.7924296,0.924642883 L72.0633052,0.924642883 L72.0633052,3.01113761 L73.7924296,3.01113761 L73.7924296,0.924642883 Z M91.1394056,2.2113779 L86.9286248,2.2113779 L86.9286248,2.91866548 L91.1394056,2.91866548 L91.1394056,2.2113779 Z M91.1394056,0.77324612 L86.9075619,0.77324612 L86.9075619,1.45933274 L91.1394056,1.45933274 L91.1394056,0.77324612 Z" id="Combined-Shape"></path>
        </g>
    </g>
</svg>